<svg width="2508" height="2281" viewBox="0 0 2508 2281" fill="none" xmlns="http://www.w3.org/2000/svg">
<g filter="url(#filter0_i)">
<path d="M8.54545 1763.77C16.1205 1751.65 28.2409 1750.89 44.9091 1761.5C423.695 1981.2 835.818 2091.05 1281.27 2091.05C1578.24 2091.05 1871.42 2035.74 2160.82 1925.14C2168.39 1922.11 2179.38 1917.56 2193.77 1911.5C2208.17 1905.44 2218.39 1900.89 2224.45 1897.86C2247.18 1888.77 2264.98 1893.32 2277.86 1911.5C2290.74 1929.68 2286.57 1946.35 2265.36 1961.5C2238.09 1981.2 2203.24 2003.92 2160.82 2029.68C2030.51 2106.95 1885.06 2166.8 1724.45 2209.23C1563.85 2251.65 1407.03 2272.86 1254 2272.86C1017.64 2272.86 794.15 2231.57 583.545 2149C372.939 2066.42 184.302 1950.14 17.6364 1800.14C8.54545 1792.56 4 1784.98 4 1777.41C4 1772.86 5.51364 1768.32 8.54545 1763.77ZM692.636 1116.05C692.636 1011.5 718.393 922.107 769.909 847.864C821.423 773.62 891.877 717.561 981.273 679.682C1063.09 644.834 1163.85 619.834 1283.55 604.682C1324.45 600.136 1391.12 594.075 1483.55 586.5V547.864C1483.55 450.893 1472.94 385.743 1451.73 352.409C1419.91 306.955 1369.91 284.227 1301.73 284.227H1283.55C1233.55 288.773 1190.36 304.682 1154 331.955C1117.64 359.227 1094.15 397.107 1083.55 445.591C1077.48 475.893 1062.33 493.318 1038.09 497.864L776.727 466.045C750.968 459.984 738.091 446.348 738.091 425.136C738.091 420.591 738.848 415.289 740.364 409.227C766.12 274.38 829.377 174.38 930.136 109.227C1030.89 44.0751 1148.7 7.71148 1283.55 0.136475H1340.36C1513.09 0.136475 1647.94 44.8342 1744.91 134.227C1760.12 149.448 1774.17 165.781 1786.95 183.091C1799.83 200.516 1810.06 216.045 1817.64 229.682C1825.21 243.318 1832.03 263.016 1838.09 288.773C1844.15 314.53 1848.7 332.334 1851.73 342.182C1854.76 352.03 1857.03 373.243 1858.55 405.818C1860.06 438.393 1860.82 457.711 1860.82 463.773V1013.77C1860.82 1053.17 1866.5 1089.15 1877.86 1121.73C1889.23 1154.3 1900.21 1177.79 1910.82 1192.18C1921.42 1206.57 1938.85 1229.68 1963.09 1261.5C1972.18 1275.14 1976.73 1287.26 1976.73 1297.86C1976.73 1309.98 1970.67 1320.59 1958.55 1329.68C1832.79 1438.77 1764.6 1497.86 1754 1506.95C1735.82 1520.59 1713.85 1522.11 1688.09 1511.5C1666.88 1493.32 1648.32 1475.89 1632.41 1459.23C1616.5 1442.56 1605.14 1430.44 1598.32 1422.86C1591.5 1415.29 1580.51 1400.52 1565.36 1378.55C1550.21 1356.57 1539.6 1341.8 1533.55 1334.23C1448.7 1426.65 1365.36 1484.23 1283.55 1506.95C1232.03 1522.11 1168.39 1529.68 1092.64 1529.68C975.968 1529.68 880.136 1493.7 805.136 1421.73C730.136 1349.76 692.636 1247.86 692.636 1116.05ZM1083.55 1070.59C1083.55 1129.68 1098.32 1177.03 1127.86 1212.64C1157.41 1248.24 1197.18 1266.05 1247.18 1266.05C1251.73 1266.05 1258.17 1265.29 1266.5 1263.77C1274.83 1262.26 1280.51 1261.5 1283.55 1261.5C1347.18 1244.83 1396.42 1203.92 1431.27 1138.77C1447.94 1109.98 1460.44 1078.55 1468.77 1044.45C1477.1 1010.36 1481.65 982.711 1482.41 961.5C1483.17 940.289 1483.55 905.439 1483.55 856.955V800.136C1395.67 800.136 1329 806.198 1283.55 818.318C1150.21 856.198 1083.55 940.289 1083.55 1070.59ZM2038.09 1802.41C2041.12 1796.35 2045.67 1790.29 2051.73 1784.23C2089.6 1758.47 2125.97 1741.05 2160.82 1731.95C2218.39 1716.8 2274.45 1708.47 2329 1706.95C2344.15 1705.44 2358.55 1706.2 2372.18 1709.23C2440.36 1715.29 2481.27 1726.65 2494.91 1743.32C2500.97 1752.41 2504 1766.05 2504 1784.23V1800.14C2504 1853.17 2489.6 1915.67 2460.82 1987.64C2432.03 2059.61 2391.88 2117.56 2340.36 2161.5C2332.79 2167.56 2325.97 2170.59 2319.91 2170.59C2316.88 2170.59 2313.85 2169.83 2310.82 2168.32C2301.73 2163.77 2299.45 2155.44 2304 2143.32C2360.06 2011.5 2388.09 1919.83 2388.09 1868.32C2388.09 1851.65 2385.06 1839.53 2379 1831.95C2363.85 1813.77 2321.42 1804.68 2251.73 1804.68C2225.97 1804.68 2195.67 1806.2 2160.82 1809.23C2122.94 1813.77 2088.09 1818.32 2056.27 1822.86C2047.18 1822.86 2041.12 1821.35 2038.09 1818.32C2035.06 1815.29 2034.3 1812.26 2035.82 1809.23C2035.82 1807.71 2036.57 1805.44 2038.09 1802.41Z" fill="#F1FAFF"/>
</g>
<defs>
<filter id="filter0_i" x="4" y="0.136475" width="2500" height="2276.72" filterUnits="userSpaceOnUse" color-interpolation-filters="sRGB">
<feFlood flood-opacity="0" result="BackgroundImageFix"/>
<feBlend mode="normal" in="SourceGraphic" in2="BackgroundImageFix" result="shape"/>
<feColorMatrix in="SourceAlpha" type="matrix" values="0 0 0 0 0 0 0 0 0 0 0 0 0 0 0 0 0 0 127 0" result="hardAlpha"/>
<feOffset dy="4"/>
<feGaussianBlur stdDeviation="2"/>
<feComposite in2="hardAlpha" operator="arithmetic" k2="-1" k3="1"/>
<feColorMatrix type="matrix" values="0 0 0 0 0 0 0 0 0 0 0 0 0 0 0 0 0 0 0.25 0"/>
<feBlend mode="normal" in2="shape" result="effect1_innerShadow"/>
</filter>
</defs>
</svg>
