<?xml version="1.0" encoding="UTF-8" standalone="no"?>
<!DOCTYPE svg PUBLIC "-//W3C//DTD SVG 1.1//EN" "http://www.w3.org/Graphics/SVG/1.1/DTD/svg11.dtd">
<svg width="100%" height="100%" viewBox="0 0 1024 1024" version="1.1" xmlns="http://www.w3.org/2000/svg" xmlns:xlink="http://www.w3.org/1999/xlink" xml:space="preserve" xmlns:serif="http://www.serif.com/" style="fill-rule:evenodd;clip-rule:evenodd;stroke-linejoin:round;stroke-miterlimit:2;">
    <g id="Layer_x0020_1">
        <path d="M1024,512C1024,229.3 794.7,0 512,0C229.3,0 0,229.3 0,512C0,767.5 187.2,979.4 432,1017.8L432,660L302,660L302,512L432,512L432,399.2C432,270.9 508.5,200 625.4,200C681.4,200 740,210 740,210L740,336L675.4,336C611.8,336 592,375.5 592,416L592,512L734,512L711.3,660L592,660L592,1017.8C836.8,979.4 1024,767.6 1024,512Z" style="fill:rgb(241,250,255);fill-rule:nonzero;"/>
        <path d="M711.3,660L734,512L592,512L592,416C592,375.5 611.8,336 675.4,336L740,336L740,210C740,210 681.4,200 625.4,200C508.5,200 432,270.8 432,399.2L432,512L302,512L302,660L432,660L432,1017.8C458.1,1021.9 484.8,1024 512,1024C539.2,1024 565.9,1021.8 592,1017.8L592,660L711.3,660Z" style="fill:none;fill-rule:nonzero;"/>
    </g>
</svg>
