<svg width="1121" height="403" viewBox="0 0 1121 403" fill="none" xmlns="http://www.w3.org/2000/svg">
<g clip-path="url(#clip0)">
<path d="M463.8 68.3C462.5 68.3 461.2 68.4 460 68.8C440.7 73.5 421.5 78.9 402.8 85.7C388.8 90.7 375.2 96.9 362.8 105.1C357.8 108.5 352.9 112.1 348.3 116.1C347.2 117 346 118 345.7 119.5C347.2 128.5 355.7 133.4 363.2 137.1C375.4 142.7 389.1 145.9 402.6 144.4C398.6 141 393 140.5 388.8 137.5C387.1 136.2 387 133.9 386.6 132C382.5 132.8 378.5 134.4 374.5 135.4C378.3 133.1 382.4 131.4 386.3 129.3C407.3 120.3 429.9 116.4 452.4 113.4C468.1 111.7 484.1 111.2 499.2 106.4C498 103 497.3 98 493 97.5C483.6 92.6 479 82.4 473.6 73.8C471.5 70.3 467.7 68.4 463.8 68.3Z" fill="#F1FAFF"/>
<path d="M657.8 68.3C654.8 68.3 651.8 69.1 649.7 71.3C646.7 74.5 644.9 78.5 642.6 82.2C639.3 88 635 93.3 629.3 96.9C627.8 97.9 625.6 97.7 624.8 99.4C623.5 101.5 622.7 104 622.2 106.4C637.4 110.9 653.3 111.4 668.9 113.3C693.7 116.4 718.7 121 741.3 132.1C743.2 133.1 745.2 134.2 747.1 135.2C743 134.1 739 132.8 734.9 131.6C734.2 133.6 734.2 136.2 732.2 137.5C728 140.3 722.6 140.8 718.8 144.2C725.2 145.1 731.7 144.5 738.1 143.3C750.4 140.9 763 136.3 772 127.2H772.1C774.1 124.5 775.2 121.4 775.6 118.1C761.2 104.7 743.7 94.9 725.4 87.9C704.8 80 683.5 73.9 662.1 68.6C660.5 68.5 659.1 68.3 657.8 68.3Z" fill="#F1FAFF"/>
<path d="M560.6 0C559.7 0 558.9 0.5 558.7 1.7C555.1 13.4 552 25.6 545.3 36C542.9 39.8 539.4 42.9 535.4 45.1C525.9 50.5 515.3 53.5 504.9 56.8C503.3 57.2 501.9 58.3 500.8 59.5C502 60.5 503.2 61.5 504.8 62C516 65.6 527.6 68.7 537.6 75.1C543.5 78.8 547 85.1 549.9 91.2H550C553.7 99.7 556.2 108.7 559 117.6C559.8 120.2 562.8 118.7 562.9 116.6C565.2 108.1 568.1 99.7 571.2 91.5L571 90.9L571.7 90.7C573.6 87.5 575.1 84 577.4 81.1C580.3 77.1 584.6 74.5 588.8 72.2C590.3 71.5 591.9 70.7 593.5 70C601 66.9 608.7 64.5 616.4 62.2C617.9 61.5 620.5 61.1 620 58.9C618.6 57.7 616.9 57.1 615.2 56.6C605.1 53.5 594.8 50.5 585.6 45.1C581.6 42.9 578.2 39.7 575.9 35.8C569.4 25.5 566.2 13.5 562.7 1.9C562.3 0.6 561.4 0 560.6 0Z" fill="#F1FAFF"/>
<path d="M107.2 77.1001C100.1 77.1001 93.0001 77.7001 86.0001 79.1001C61.7001 84.0001 39.8001 98.4001 24.7001 117.9C16.3001 128.7 9.9001 141 5.8001 154C1.5001 167.5 -0.399902 181.8 0.100098 196C0.400098 203.5 1.3001 211 3.1001 218.4C4.3001 223.9 6.0001 229.3 8.0001 234.6H8.1001C11.0001 242.5 14.9001 249.9 19.4001 256.9C20.1001 257.6 20.4001 259.1 21.5001 259.1L21.0001 259.2C27.2001 268.2 34.7001 276.2 43.2001 283.1H43.5001C51.4001 289.7 60.5001 294.8 70.1001 298.5C83.6001 303.9 98.4001 305.9 112.9 305.2C136.5 304.3 160.6 299.7 181 287.3C187.2 284.1 192.9 279.5 197.7 274.4C197.7 269.4 197.7 264.4 197.8 259.4C197.8 251.5 197.9 243.6 197.7 235.8C198 230.6 197.2 225.3 199.3 220.4L199.1 220.6C201.2 216.7 204.5 213.3 208.6 211.4C212.3 209.4 216.9 209.4 220.2 206.6C220.2 206 220.1 204.9 220.1 204.4C217.4 204 214.6 204.2 211.9 204.2C178.6 204.2 145.3 204.2 111.9 204.2C109.9 203.7 107.4 205.5 109 207.6C111.4 209.9 114.9 210.2 117.9 211.2C126.9 213.1 135.7 217.3 141.3 224.7C143.1 228.1 144.9 231.7 144.9 235.7C145 247.4 144.8 259.2 145 270.9C144.6 276.9 144.5 283.2 142 288.7C137.3 293.9 129.6 291.7 123.4 292C112.8 290.4 102.8 285.6 94.8001 278.5C87.4001 271.9 81.4001 263.8 76.7001 255.1C72.5001 247.2 69.4001 238.7 67.0001 230.1C65.8001 225.1 64.8001 220 63.9001 214.9C62.8001 205.8 62.3001 196.6 62.7001 187.4C63.4001 175.9 65.3001 164.4 68.5001 153.4H68.6001C72.2001 141.3 77.8001 129.8 85.3001 119.7C90.2001 113.8 95.5001 108.1 102 103.9C112.7 96.7001 126.3 93.6001 138.9 96.7001C152.5 99.8001 163.8 109.1 172.2 120C177.6 127.3 182 135.4 185.4 143.8C186.9 147.7 188.3 151.7 189.4 155.8C190.2 158.3 190.5 161.1 192.5 163C195.9 156.7 195.2 149.3 195.9 142.5C196.3 135.6 196.5 128.7 196.5 121.9C196.2 115 196.6 107.8 194.4 101.2C182 101.5 170.2 97.0001 159.4 91.1001C143.5 81.9001 125.4 77.2001 107.2 77.1001Z" fill="#F1FAFF"/>
<path d="M211.7 148.8C211.1 148.8 210.6 148.8 210 148.8C214.4 153.2 220.4 156.2 223.4 161.9C227.7 170 227.7 179.5 227.5 188.4C227.6 196 227.5 203.6 227.5 211.1C227.5 219.2 227.5 227.4 227.5 235.5C231.7 231.4 236.2 227.5 241 224.1C247.6 219.3 254.7 215.2 262.1 211.7C262.1 204.3 262.1 196.8 262.1 189.4C262.2 185.1 261.9 180.9 262.2 176.6C262.7 172.6 266.7 169.6 270.6 170C278.9 170 287.2 169.9 295.5 170.1C302.4 170.3 308.9 173.4 314.1 177.9C320.4 183.8 324.8 191.6 327.6 199.8C327.9 199.5 328.4 198.8 328.7 198.5C329.7 191.6 328.5 184.5 327.4 177.6C326 171 324.1 164.6 321.9 158.2C297.8 158.2 273.5 158.5 249.5 155.8C238.4 154.3 227.5 151.9 216.6 149.5C215.1 149.1 213.4 148.9 211.7 148.8Z" fill="#F1FAFF"/>
<path d="M305.1 207.2C302.6 207.2 300.1 207.5 297.8 207.7C273.7 210.8 250.6 220.9 231.7 236.2C225.4 241.7 219.6 247.9 214.7 254.8C210.6 260.7 206.9 266.8 204 273.4C211 268.8 218.2 264.7 225.6 260.9C226.2 260.6 226.8 260.4 227.4 260.1C227.4 261.3 227.4 262.5 227.4 263.7C227.9 269.8 226.6 275.9 224.5 281.6L224.8 282.3L224 282.5C219.7 291 212 297 205.1 303.2C210.4 303.4 215.5 301.7 220.7 300.7C234.5 297.7 248.7 296.7 262.8 296.7C284.6 296.7 306.3 296.7 328.1 296.7C330.9 289.6 332.9 282.3 334.5 274.9C335.5 269.1 336.1 263.3 336 257.5C335.9 256 336.1 253.8 334.3 253.3C331.6 261.1 327.2 268.4 321.4 274.3C315.3 280.2 307.2 284 298.6 284.2C289 284.3 279.3 284.3 269.7 284.2C267.3 284.3 265.4 282.8 263.7 281.4C262.9 279.6 262.1 277.7 262.2 275.6C262.2 270.4 262.2 265.2 262.2 260C262.3 255.6 262.2 251.2 262.2 246.8C263.7 246.4 265.3 246 266.8 245.6C270.2 244.8 273.5 244.1 276.9 243.5C294.3 240.4 312.1 239 329.8 238.9C330.8 238.8 331.8 238.7 332.8 238.4C331.7 235.4 329.8 232.8 327.1 231C323.9 229.1 320.1 228.3 317 226.3C312.1 222.1 313 214.9 314.1 209.3C311.4 207.6 308.3 207.1 305.1 207.2Z" fill="#F1FAFF"/>
<path d="M461.3 158.1C451.1 158.1 440.8 158.1 430.6 158.2C429.1 161.2 433.3 162 435.2 163.1C442.6 166.3 444.4 175.2 443.8 182.5C443.8 187.1 443.8 191.6 443.8 196.2C443.8 208.5 443.7 220.8 443.8 233.1C443.8 236.8 443.8 240.4 443.8 244.1C442.3 242.2 440.7 240.2 439.2 238.3C433.2 230.5 427.1 222.9 421.2 215.2C417.5 210.5 413.8 205.8 410.1 201C406.7 196.6 403.3 192.3 399.9 187.9C392.2 178 384.4 168.1 376.7 158.2C364.3 158.3 351.9 158.1 339.6 158.3V160.6C342.6 163 347 163.7 349.3 167.2C354.2 173.2 352.5 181.3 352.9 188.5C352.9 194.9 352.8 201.2 352.9 207.6C352.9 213.3 352.9 219 352.9 224.7C352.9 230.3 352.9 235.8 352.9 241.4C352.9 249.5 353 257.6 352.9 265.8C352.8 271.8 353.6 277.9 351.8 283.8C350.6 286.1 349.4 288.4 347.4 290C345.3 291.8 342.5 292.5 340.2 294C339.1 294.6 339.6 296 339.6 297C360.1 296.9 380.6 297.1 401 296.9C401.7 293.7 398 293 395.9 291.8C391.9 290.1 389.6 286.3 388.2 282.4C387 275.6 387.8 268.7 387.5 261.9C387.6 255 387.5 248.1 387.5 241.2C387.6 236.8 387.5 232.3 387.5 227.9C387.5 224.2 387.5 220.4 387.5 216.7C387.5 211.6 387.5 206.6 387.5 201.5L387.4 199.5C387.5 199.4 387.8 199.3 387.9 199.2C389.9 202.2 392.2 205 394.4 207.8C396.9 211 399.4 214.3 402 217.5C406.7 223.5 411.3 229.5 416 235.4C419.9 240.5 423.9 245.6 427.9 250.6C433.9 258.2 439.7 266 445.8 273.4C450.8 280.1 456.1 286.6 461.2 293.3C464.1 297 467.3 300.4 470.7 303.6C476 308.1 482.6 311.5 489.6 311.9C488.6 308.5 486.2 305.9 484.7 302.8L484 302.5L484.3 302.1C483.1 297.7 481.2 293.6 480.4 289.1C479.7 285.2 479.2 281.2 478.9 277.3C478.5 269.4 478.7 261.4 478.6 253.5C478.6 244.7 478.6 235.9 478.6 227.1C478.7 218.9 478.7 185.5 478.6 180.2C478.4 173.8 480.6 166.5 486.8 163.6C488.9 162.3 492.6 161.8 492.2 158.5C481.8 158.2 471.6 158.1 461.3 158.1Z" fill="#F1FAFF"/>
<path d="M555.5 128.4C552.7 128.4 549.8 128.6 547 129.1C533 131.1 519.6 138.5 511.4 150.1C508.4 154.5 506.1 159.4 504.8 164.5V164.6C502.3 174.5 503.6 185 507 194.6H507.1C509.4 201.1 513.2 207 517.9 212H518.1C524.1 217.9 531.2 222.5 538.1 227.1C552.3 237.4 567.3 246.6 581.2 257.3C585.1 260.9 587.8 265.6 588.6 270.8C588.7 275.3 588.2 279.9 586.5 284.1C584.2 289.1 580.1 293.3 575.1 295.6C569.3 298.5 562.6 298.3 556.3 297.5C553.3 297 550.4 296.4 547.4 295.6C541.7 293.8 536.3 291.1 531.3 287.8C529.6 286.5 527.9 285.1 526.2 283.7L523.8 281.6C522.3 280 520.8 278.5 519.3 276.9C516.2 273.3 513.3 269.5 510.7 265.4C506.5 259.3 503.9 252.3 499.4 246.4C497.7 252.5 497.7 259 497.6 265.3C497.6 267.2 497.6 269.2 497.8 271.1C498.1 276.8 498.9 282.5 500.1 288C501.9 295 504.5 302.1 509.6 307.4C517 302.9 526.4 303.5 534.3 306.3C547.3 310.5 561.1 311.4 574.7 310C581 309.4 587.1 307.8 593 305.6C601 302.2 608.1 296.8 613.1 289.6C617.6 282.9 620.4 275.2 621.3 267.2L621.4 267.3C622 262.9 622.1 258.5 622.1 254.1C621.8 244.7 619.5 235.4 614.5 227.4C611.4 222.6 607.6 218.3 603.5 214.4C593.5 206 582.3 199 571.6 191.5C561.9 184.8 551.9 178.4 542.4 171.4C536.7 166.8 532.7 159.7 534 152.2C535 148.1 537 144 540.7 141.6C547 137.3 555.2 137.2 562.5 137.9C571.9 138.9 580.7 143.6 586.7 151H586.8C590.7 155.7 592.9 161.5 596.4 166.4C603.3 171.4 610.6 176.5 618.9 178.9C619 174.7 617.3 170.8 615.9 167C613.7 161.3 611.5 155.7 608.9 150.2C605.8 143.7 602.1 137.5 598.2 131.5C592.6 134.2 586.2 133 580.4 131.7C572.5 130 564 128.3 555.5 128.4Z" fill="#F1FAFF"/>
<path d="M689.2 158.1C668.7 158.3 648.2 157.9 627.7 158.3C627.5 162.1 632 162.3 634.3 164C640.4 167.8 641.8 175.6 641.3 182.2C641.4 187.7 641.2 193.2 641.4 198.7L641.5 199.3C641.2 201.5 641.2 203.7 641.3 205.9C641.3 214.3 641.2 222.8 641.3 231.3C641.3 234.7 641.1 238.2 641.6 241.6L641.5 240.9C641.6 241.3 641.8 242.2 641.9 242.7C641.8 242.9 641.5 243.3 641.4 243.5C641.1 250.4 641.3 257.3 641.2 264.2C641.2 269.2 641.2 274.2 641.2 279.3C641 284.4 639.3 289.2 637.5 293.9L637.7 294.6L637.1 294.7C633.4 301.3 628 306.7 622.6 311.8C639.6 312.2 654 301.8 670.3 298.6C676.6 297.6 682.9 296.7 689.3 296.8C690.4 293.7 686.6 292.8 684.5 291.7C679.1 289.3 676.3 283.4 676 277.8C676 272.8 676.1 267.9 676 262.9C676.1 258 676.1 253.2 676 248.3C676.1 244.1 679.5 240.1 683.9 240.2C698 240.2 712 240 726.1 240.3C727.2 240.9 728.4 241.5 729.6 241.8C731.6 244 732.1 246.9 732.7 249.7L732.1 250.3C732.2 250.7 732.5 251.6 732.6 252C731.9 254.3 732.3 256.7 732.3 259.1C732.3 265.2 732.2 271.2 732.3 277.3C732 283 729.4 289.1 724 291.5C721.9 292.7 718.1 293.3 718.8 296.6C739.3 296.7 759.8 296.8 780.2 296.6C781.5 293.6 777.6 292.9 775.7 291.8C770.3 289.6 767.4 283.8 766.9 278.2C766.9 273.4 767 268.6 766.8 263.8C767 256.5 766.9 249.1 766.8 241.8C767 233.5 766.9 225.2 766.8 216.9C767.1 205.6 766.7 194.4 766.9 183.1C766.9 178.5 766.6 173.7 768.9 169.6C770.5 166.2 773.5 163.8 776.9 162.5C778.5 161.7 781.5 160.6 780.1 158.3C759.6 158.1 739.2 158.1 718.7 158.3C718.2 161.6 722 162.1 724.2 163.4C729.4 165.8 731.8 171.6 732.4 177.1C732.2 187.5 732.4 198 732.3 208.4C732.4 211 730.9 213.1 729.2 215C727.5 215.7 725.9 216.5 724.1 216.4C711.1 216.4 698 216.4 685 216.4C681.6 216.8 678.6 214.7 676.8 212C675.7 206.1 676.4 200.2 676.2 194.3C676.2 192.2 676.2 190.2 676.2 188.1C676.2 186.4 676.2 184.8 676.2 183.1C675.6 176 676.9 167.1 684 163.5C685.9 162.1 690.5 161.6 689.2 158.1Z" fill="#F1FAFF"/>
<path d="M804.9 207.2C803.2 207.2 801.5 207.3 799.7 207.5C797.9 207.6 796.4 208.5 794.9 209.4C795.8 214.2 796.6 219.6 794 224C793 225.9 790.8 226.8 789.5 228.4C784.8 228.8 779.6 231.7 777.3 236.2C776.6 237.1 776.1 239.1 777.8 238.9C792 239 806.2 239.8 820.3 241.7C820.3 239.8 820.3 237.9 820.3 236C820.3 232.7 820.3 229.4 820.3 226.2C820.3 220.5 820.3 214.8 820.3 209.2C815.3 208.2 810.1 207.2 804.9 207.2Z" fill="#F1FAFF"/>
<path d="M864.9 227.1C864.9 235.8 864.8 244.5 864.9 253.2L865.2 252.7C879.2 258.3 892.6 265.1 905.2 273.4C900.9 263.4 894.7 254.3 887.6 246.1C880.9 238.6 873.2 232.3 864.9 227.1Z" fill="#F1FAFF"/>
<path d="M822.4 158.1C815.5 158.1 808.7 158.2 801.8 158.5C801.8 159 801.9 160 801.9 160.4C807.3 163.3 814.1 163.2 818.7 167.6C823.2 171 824.6 176.9 824 182.3C824.1 197.3 824 212.3 824 227.2C824.1 235.7 823.9 244.3 824 252.8C823.8 256.3 823.9 259.7 824 263.2C823.9 268.6 824.1 273.9 823.8 279.3C821.8 286.7 814.5 290.9 807.4 292.3C805.2 293.1 801.2 293.2 801.4 296.4C803.9 296.7 806.4 296.7 808.9 296.5C809.6 296.5 810.9 296.5 811.6 296.5C834.3 296.9 857 296.5 879.7 296.7C881.2 296.6 884.2 297.1 883.5 294.7C880.7 292.5 876.9 292.4 873.7 291.2C869 289.8 864.9 286.7 862.3 282.5L861.5 282.3L861.7 281.5C860.6 277.2 860.9 272.8 860.9 268.4C860.9 261.1 860.9 253.8 860.9 246.5C860.9 237 860.9 227.5 860.9 217.9C861 207.2 860.9 196.5 860.9 185.9C861.2 181.1 860 175.9 862.8 171.6C865.9 166.4 871.8 163.7 877.5 162.5C879.8 161.7 883.5 161.7 883.7 158.5C874.7 157.7 865.6 158.4 856.6 158.1C845.3 158.3 833.9 158.1 822.4 158.1Z" fill="#F1FAFF"/>
<path d="M1120.8 89.6001C1112.2 90.5001 1103.8 93.2001 1095.3 94.8001C1072.1 100 1048.9 105.1 1025.8 110.3C1024.5 110.3 1022.1 112.1 1024 113.3C1029.4 115.3 1035.8 115.8 1039.9 120.4C1045.5 125.6 1046.2 133.5 1045.8 140.7C1045.6 147.4 1045.7 154.1 1045.8 160.8C1045.6 171.4 1045.7 182.1 1045.8 192.8C1045.6 199.3 1045.8 205.9 1045.7 212.4C1035.6 203.9 1025.5 195.4 1015.3 186.9C1004.8 178 994.3 169.3 983.8 160.5C971.1 149.8 958.3 139.1 945.6 128.4C932 130.4 918.4 132.5 904.8 134.4C902.7 135.1 898.2 134.1 898.6 137.5C902 140.6 907.3 139.7 911.3 142C918.3 145 921.9 152.8 921.2 160.1C921.1 170.4 921.1 180.7 921.2 191C921.2 199.7 921.1 208.4 921.2 217.1C921.1 225.1 921.1 233.1 921.2 241.1C921.2 248.1 921.2 255.2 921.2 262.2C921.5 267.8 921.1 273.5 918.6 278.7C915.8 283.9 911.5 288.2 906.1 290.7C903.7 292 900.9 292.7 899 294.7C898.1 297.1 901.3 296.8 902.8 296.9C908.9 296.8 915 297.1 921.1 296.7H921.7C937.7 297.1 953.8 296.7 969.8 296.9C978.5 296.7 987.3 297.3 996 296.6C997.6 294.7 994.9 293.5 993.6 292.8C988.4 290.5 983.3 287.8 979.7 283.3C975.5 278 973.5 271.2 974.1 264.4C974.1 259 974.1 253.5 974.1 248.1C974.1 238.5 974.1 228.9 974.1 219.2C974.1 211.1 974.1 203 974.1 194.9C974.1 189.6 974.1 184.4 974.1 179.1C978.5 182.7 982.7 186.4 987.1 190C994 195.8 1000.8 201.6 1007.7 207.4C1020.3 218.1 1033.1 228.7 1045.7 239.4C1045.7 240.1 1045.7 241.5 1045.7 242.2C1046 250 1046.8 257.8 1049.2 265.3C1050.5 270 1052.2 274.6 1054.5 278.9C1057.1 284 1060.2 288.8 1064 293.1C1071.7 302.2 1081.6 309.4 1092.6 313.9C1094.4 314.6 1097.4 315.4 1098.3 312.9C1099.1 302.9 1098.5 292.9 1098.6 282.9C1098.9 271.8 1098.6 260.6 1098.7 249.5C1098.6 237.4 1098.9 225.3 1098.5 213.3C1099 199.2 1098.7 185.1 1098.6 170.9C1098.8 154.8 1098.6 138.7 1098.7 122.7C1099.1 111.2 1106.8 101.1 1116.3 95.2001C1118 93.5001 1121.5 92.5001 1120.8 89.6001Z" fill="#F1FAFF"/>
<path d="M263.8 341.6C250.1 341.7 236.4 341.5 222.7 341.7C222.9 344.2 225.9 344 227.7 344.9C231.9 346.1 235.6 349.9 235.5 354.5C235.5 366.2 235.5 377.9 235.5 389.6C235.7 394.2 232 398.1 227.7 399.3C225.9 400.2 223 400 222.6 402.5C236.3 402.8 250.1 402.5 263.8 402.7C265.5 402.5 267.7 403.3 268.8 401.5C266.7 400.3 264.4 399.7 262.2 398.8C258.5 397.3 255.5 393.7 255.7 389.6C255.6 378.6 255.7 367.6 255.7 356.6C255.5 353.6 256.1 350.3 258.4 348.1C261.1 345 265.6 344.9 268.9 342.7C267.6 341.1 265.5 341.8 263.8 341.6Z" fill="#F1FAFF"/>
<path d="M349.1 341.5C338.6 341.9 328.2 341.4 317.7 341.7L318 343.3C322.3 344.9 327.1 347.4 327.6 352.6C327.9 364.9 327.7 377.2 327.7 389.5C327.9 394 324.4 397.8 320.3 399.1C318.3 400 315.7 400 314.7 402.2C321.7 402.9 328.8 402.3 335.8 402.5C337.8 402.3 340.3 403.1 341.9 401.5C339.7 399.7 336.6 398.6 335.2 395.9C333.7 393.3 333.6 390.3 333.7 387.4C333.8 376.6 333.6 365.7 333.8 354.9C336.1 359.2 337.5 364 340.1 368.2L339.8 369.1C340.1 369.5 340.7 370.3 341 370.7C345.5 381.4 350.5 392 355.1 402.7C358 401.3 359.6 398.3 360.9 395.5C366.8 382.4 372.6 369.2 378.5 356.1C378.5 366.9 378.5 377.6 378.5 388.4C378.6 391.8 377.9 395.5 375.4 398C373.8 399.5 370.9 399.8 370.6 402.4C382.6 402.6 394.7 402.4 406.8 402.5C408.5 402.2 410.8 403.2 411.9 401.3C408.8 399.5 405 399.2 402.3 396.9C400.1 395.1 398.7 392.3 398.8 389.5C398.8 377.8 398.8 366.1 398.8 354.4C398.7 350.4 401.1 346.4 404.9 344.9C406.5 344 408.9 343.8 409.2 341.6C399 341.4 388.8 341.6 378.6 341.5C373.6 352.4 368.8 363.4 363.9 374.3C358.9 363.5 354.2 352.4 349.1 341.5Z" fill="#F1FAFF"/>
<path d="M464.4 341.6C463 341.6 461.6 341.6 460.4 342.4C462 343.7 464 344.4 465.8 345.3C469.2 346.9 471.2 350.7 471.1 354.5C471.1 366.2 471.1 377.8 471.1 389.5C471.3 394.1 467.7 398 463.5 399.2C461.7 400.1 458.6 399.9 458.3 402.5C473.6 402.6 488.9 402.6 504.2 402.5C504 400.2 501.5 400.2 499.9 399.5C495.9 398.5 492 395.3 491.5 391C491.2 386.9 491.5 382.8 491.4 378.7C498.2 378.7 505.2 379 511.6 376.4C517.2 374.2 522.7 370.4 524.8 364.5C526.7 359.5 524.9 353.8 521.2 350.2C515.4 344.3 506.9 341.8 498.9 341.7C487.9 341.7 476.9 341.7 465.9 341.7C465.3 341.6 464.9 341.6 464.4 341.6ZM491.4 345.9C497.2 346.2 502.4 350.4 504 356C505.7 361.3 503.7 367.3 499.6 370.9C498.4 371.5 497.2 372.3 496.1 373.1C494.6 373.6 493 374 491.4 374.2C491.4 364.8 491.4 355.3 491.4 345.9Z" fill="#F1FAFF"/>
<path d="M604.6 340.2C605.5 342.2 606.4 344.3 607.2 346.3C604.8 351.4 602.5 356.5 600.3 361.7C599.9 362.7 599.4 363.6 599 364.6C594.7 374.1 590.6 383.6 586.3 393.1C585 395.9 582.7 398.3 579.7 399.2C577.8 400.1 575 399.9 574.4 402.4C581.9 402.7 589.3 402.4 596.8 402.6C598.5 402.4 600.8 403.2 601.9 401.4C599 399.3 593.6 399.8 592.9 395.5C593.1 390.8 596 386.8 597.7 382.5C606.3 382.6 614.9 382.5 623.5 382.6C625 386.2 627 389.7 628.1 393.5C628.8 395.7 627.6 398.3 625.3 398.9C623.3 400 620 399.7 619.4 402.4C633 402.4 646.6 402.6 660.2 402.3C659.6 399.8 656.7 399.9 654.9 399.1C651.5 398.2 649.2 395.3 648 392.2C640.3 374.8 632.5 357.5 624.8 340.1C618 340.2 611.3 340.2 604.6 340.2ZM610.5 353.5C613.9 361.2 617.4 368.9 620.8 376.7H600.2C603.6 368.9 607 361.2 610.5 353.5Z" fill="#F1FAFF"/>
<path d="M744.7 341.6C737.8 341.6 731 343.2 725 346.7C717.1 351.2 710.9 359.3 709.8 368.5C709 373.6 710.2 378.7 712 383.5C712.2 383.8 712.7 384.5 713 384.8C718.4 395.4 730.2 401.7 741.9 402.5C752 403.2 763.3 400.8 770.3 392.9C772.8 389.9 775.4 386.5 775.2 382.4C772.7 384.8 771.2 388.1 768.4 390.2C760 397.2 746.5 396.3 738.8 388.7C728.5 378.8 729.9 359.5 741.5 351.2C748.8 346 759.7 347.1 766 353.5C769 356.2 770.5 359.9 772.8 363C773.7 357.1 773.3 351 772.2 345.2C769.8 345.4 767.5 346 765.1 346.1C762.3 345.6 759.8 344.3 757.1 343.5C753 342.3 748.9 341.7 744.7 341.6Z" fill="#F1FAFF"/>
<path d="M829.3 341.6C829.3 347.7 829.3 353.9 829.3 360C830.5 360.1 831.7 360 832 358.6C833.3 355.8 834.4 352.6 837.2 350.8C842 347.3 848.2 348.7 853.7 348.5C853.7 362.2 853.7 375.9 853.7 389.6C853.9 394.2 850.1 398.2 845.8 399.3C844 400.1 841.3 400.1 840.8 402.4C856.2 402.6 871.7 402.9 887.1 402.2C885 398.9 880.1 399.8 877.5 397C871.7 392.2 874.9 383.9 873.8 377.5C873.8 377 873.8 376.2 873.8 375.7C874.2 366.6 873.9 357.6 874 348.5C879.9 348.7 886.9 347.3 891.6 351.9C894.6 354.1 894.2 358.9 897.7 360.6C898.9 354.4 897.9 347.9 898.2 341.6C875.1 341.6 852.2 341.6 829.3 341.6Z" fill="#F1FAFF"/>
</g>
<defs>
<clipPath id="clip0">
<rect width="1120.9" height="402.8" fill="white"/>
</clipPath>
</defs>
</svg>
