<?xml version="1.0" encoding="UTF-8" standalone="no"?>
<!DOCTYPE svg PUBLIC "-//W3C//DTD SVG 1.1//EN" "http://www.w3.org/Graphics/SVG/1.1/DTD/svg11.dtd">
<svg width="100%" height="100%" viewBox="0 0 24 24" version="1.1" xmlns="http://www.w3.org/2000/svg" xmlns:xlink="http://www.w3.org/1999/xlink" xml:space="preserve" xmlns:serif="http://www.serif.com/" style="fill-rule:evenodd;clip-rule:evenodd;stroke-linejoin:round;stroke-miterlimit:2;">
    <path d="M12,0C5.373,0 0,5.373 0,12C0,18.627 5.373,24 12,24C18.627,24 24,18.627 24,12C24,5.373 18.627,0 12,0ZM12,2C17.514,2 22,6.486 22,12C22,17.514 17.514,22 12,22C6.486,22 2,17.514 2,12C2,6.486 6.486,2 12,2ZM8.285,17.832L13.551,12.582L15.407,14.432L9.148,17.902C8.91,18.034 8.618,18.032 8.382,17.897L8.285,17.832ZM13.02,12.052L8,17.057L8,7.047L13.02,12.052ZM16.157,9.984L18.609,11.343C18.851,11.477 19,11.728 19,12C19,12.272 18.851,12.523 18.609,12.657L16.09,14.054L14.082,12.052L16.157,9.984ZM8.23,6.217L8.382,6.103C8.618,5.968 8.91,5.966 9.148,6.098L15.474,9.605L13.551,11.522L8.23,6.217Z" style="fill:rgb(241,250,255);"/>
</svg>
