<svg width="746" height="746" viewBox="0 0 746 746" fill="none" xmlns="http://www.w3.org/2000/svg">
<rect width="746" height="746" rx="373" fill="white"/>
<path d="M315.209 461.105H193.975C191.885 461.105 190.213 462.811 190.213 464.943V474.326C190.213 476.458 191.885 478.164 193.975 478.164H283.855V528.915C281.347 525.077 278.421 521.665 275.076 518.253C264.625 507.165 252.92 501.62 241.215 501.62C232.017 501.62 223.656 506.312 217.386 515.268C212.369 522.518 209.025 531.048 209.025 538.724C209.025 546.827 210.279 557.063 216.132 566.445C223.656 577.96 235.362 581.372 245.813 581.372C259.609 581.372 271.314 571.563 271.314 559.195C271.314 551.945 267.552 545.548 260.863 541.71L254.174 537.871V548.107C253.756 550.666 248.739 555.357 243.305 555.357C238.706 555.357 234.108 553.225 231.599 550.666C229.509 548.533 229.091 545.121 229.091 542.563C229.091 539.151 230.345 535.739 232.854 532.327C235.78 528.915 238.706 527.209 243.305 527.209C255.428 526.783 265.461 532.754 273.822 545.121C280.511 555.357 283.855 565.166 283.855 575.828L284.273 601.417L302.25 612.505C302.668 612.932 303.504 612.932 304.34 612.932C306.43 612.932 308.102 611.226 308.102 609.093V478.591H315.209C317.299 478.591 318.971 476.885 318.971 474.752V465.37C318.971 462.811 317.299 461.105 315.209 461.105" fill="#EC1C24"/>
<path d="M556.841 461.105H403.417C401.327 461.105 399.655 462.811 399.655 464.943V482.429C385.023 466.649 371.645 458.546 359.522 458.546C348.235 458.119 338.202 461.105 330.677 467.502C322.734 473.899 318.135 481.576 318.135 490.532C318.135 517.827 348.235 517.827 355.76 513.562C357.014 512.709 358.686 511.856 360.776 511.856C367.047 511.856 369.137 516.547 369.137 520.812C369.137 527.209 360.358 532.753 349.489 532.753C343.636 532.753 339.874 531.048 337.365 527.636L332.767 520.386L329.423 528.489C328.586 530.621 327.75 532.753 327.75 535.739C327.75 542.136 331.095 548.107 336.529 553.225C341.964 557.916 348.653 560.475 355.76 560.475C367.047 560.475 376.662 556.21 382.933 547.68C387.949 540.857 390.458 532.754 390.458 523.797C390.458 518.68 388.785 513.562 384.605 507.591C379.588 500.341 373.736 496.929 367.047 496.929C364.539 496.929 361.612 497.782 358.686 498.635C357.432 499.062 355.342 499.488 354.923 499.488C354.087 499.488 351.997 499.062 350.743 497.356C349.907 496.503 348.235 494.37 348.235 491.385C348.653 484.561 354.505 477.738 364.957 477.738H365.375C372.482 477.738 379.588 481.149 386.695 487.973C392.13 493.091 396.31 498.635 399.655 504.606V601.843L417.631 612.505C418.049 612.932 418.885 612.932 419.721 612.932C421.811 612.932 423.483 611.226 423.483 609.093V478.591H450.656V563.034L472.395 571.99C472.813 571.99 473.231 572.416 473.649 572.416C475.739 572.416 477.412 570.71 477.412 569.004V568.151C481.174 543.416 491.625 525.93 509.601 515.694V520.386C509.601 523.797 510.019 533.18 510.019 538.298C510.019 541.283 510.437 543.416 510.437 545.121C510.437 554.504 511.692 569.857 515.036 580.519C520.889 601.417 530.922 606.108 538.447 606.535H538.865C543.045 606.535 546.39 605.255 548.898 603.123C550.152 601.843 551.824 599.284 551.824 595.02C551.824 591.181 551.406 588.196 550.152 586.064L548.48 583.078L545.135 583.931C541.373 584.784 540.119 584.784 539.701 584.784H538.865C538.029 584.784 537.611 584.784 537.192 584.358C535.938 583.931 533.848 581.799 532.176 574.975C530.922 569.857 530.504 563.46 530.504 559.622C530.504 532.327 535.938 511.856 544.717 507.165L545.135 506.738C546.39 505.885 547.226 504.606 547.226 503.326C547.226 502.473 547.226 502.047 546.808 501.62V500.341C542.627 491.811 533.848 485.841 521.725 482.429L520.889 482.002H520.052C510.437 483.708 499.15 490.532 484.936 502.473C481.174 505.459 477.83 508.871 474.485 511.856V478.164H556.841C558.931 478.164 560.603 476.458 560.603 474.326V464.943C560.603 462.811 558.931 461.105 556.841 461.105" fill="#EC1C24"/>
<path d="M502.494 287.954C502.494 291.792 502.494 296.057 502.076 299.895C500.822 316.955 496.642 332.734 489.953 347.661C487.445 353.632 484.1 359.176 480.756 364.72C455.673 405.236 411.778 431.678 361.612 431.678C340.292 431.678 319.807 426.56 301.413 418.03C253.756 395 220.73 345.102 220.73 287.954C220.73 231.232 252.502 182.613 298.905 159.157C295.143 163.848 291.798 169.393 288.872 174.51C288.454 174.937 288.454 175.363 288.036 175.79C286.364 177.496 284.273 178.775 282.601 180.481L276.33 186.878L275.076 188.158C274.658 188.584 274.24 189.011 273.822 189.864C272.986 190.717 272.15 191.569 271.732 192.422C270.478 194.128 268.806 195.834 267.551 197.967C261.699 205.643 256.682 214.599 252.92 223.555L251.666 226.114C251.247 227.394 250.829 228.247 250.411 229.526C250.411 229.953 249.993 230.806 249.993 231.232C249.575 232.938 248.739 234.644 248.321 236.35C247.903 237.629 247.485 238.482 247.485 239.762C247.485 240.188 247.067 241.041 247.067 241.468C246.649 242.747 246.649 243.6 246.231 244.879C245.395 248.291 244.559 252.13 244.141 255.968C244.141 256.821 243.723 257.674 243.723 258.953C243.723 259.806 243.723 260.233 243.305 261.086C243.305 262.365 243.305 263.218 242.887 264.498V273.88C242.887 313.116 260.445 348.088 288.036 371.118C309.356 389.03 336.529 399.692 365.793 399.692C392.548 399.692 417.631 390.736 437.697 375.809C452.329 364.72 464.87 350.647 473.649 334.44C474.903 332.308 475.739 330.175 476.993 328.043C484.1 313.116 488.281 296.057 488.699 278.571V274.307C488.699 270.042 488.699 266.203 488.281 262.365C488.699 262.365 488.699 262.792 488.699 262.792C490.789 264.498 492.461 266.203 494.133 267.909C495.806 264.924 497.478 261.939 499.568 259.38C500.822 264.924 501.658 270.468 502.076 276.013C502.494 279.424 502.494 283.689 502.494 287.954" fill="#EA2227"/>
<path d="M488.699 273.454V277.718C488.699 303.307 478.248 324.631 476.994 327.19C476.158 329.322 474.903 331.455 473.649 333.587C464.87 349.794 452.329 364.294 437.697 374.956C417.631 389.883 392.548 398.839 365.793 398.839C336.111 398.839 308.938 388.177 288.036 370.265C260.445 347.235 242.887 312.263 242.887 273.027V263.645C242.887 262.365 242.887 261.512 243.305 260.233C243.305 259.38 243.305 258.953 243.723 258.1C243.723 257.247 244.141 256.394 244.141 255.115C244.559 251.277 245.395 247.865 246.231 244.026C246.649 242.747 246.649 241.894 247.067 240.615C247.067 240.188 247.485 239.335 247.485 238.909C247.903 237.629 247.903 236.776 248.321 235.497C248.739 233.791 249.575 232.085 249.994 230.379C249.994 229.953 250.412 229.1 250.412 228.673C250.83 227.394 251.248 226.541 251.666 225.261L252.92 222.702C256.682 213.746 261.699 204.79 267.552 197.114C268.806 195.408 270.478 193.702 271.732 191.569C272.568 190.716 272.986 189.864 273.822 189.011C274.24 188.584 274.658 188.158 275.076 187.305L276.331 186.025L282.601 179.628C284.273 177.922 286.364 176.216 288.036 174.937C287.618 175.363 287.618 175.79 287.2 176.216C286.782 176.643 286.782 177.069 286.364 177.922C279.257 192.849 274.658 209.908 272.986 228.673C272.568 233.791 272.15 238.909 272.15 244.026C272.15 309.704 309.774 363.014 356.596 363.014H361.194C367.883 363.014 374.572 362.161 380.843 360.456C412.614 351.499 435.607 322.072 435.607 287.101V284.969C435.189 264.071 426.41 245.732 412.614 232.085C422.229 232.512 431.426 233.791 440.623 235.923C457.763 240.615 473.649 248.718 487.027 259.806C487.445 259.806 487.445 260.233 487.863 260.233C488.281 265.35 488.699 269.189 488.699 273.454" fill="#F69220"/>
<path d="M489.117 273.454V277.718C489.117 304.587 477.412 327.617 477.412 327.617C476.575 329.749 475.321 331.881 474.067 334.014C465.288 350.22 452.747 364.72 437.697 375.809C416.377 391.162 391.712 399.692 365.375 399.692C336.947 399.692 308.938 389.456 287.2 371.118C258.354 347.235 242.051 311.41 242.051 273.454C242.051 235.497 258.772 199.673 287.618 175.79L288.872 174.937C288.454 175.363 288.454 175.79 288.036 176.216C287.618 176.643 287.618 177.069 287.2 177.496C259.191 201.378 242.887 236.35 242.887 273.454C242.887 310.984 259.191 346.382 287.618 370.265C309.356 388.603 336.947 398.412 365.375 398.412C391.294 398.412 415.958 390.309 436.861 374.956C451.493 364.294 464.034 349.794 472.813 333.587C474.067 331.455 474.903 329.323 476.157 327.19C476.157 326.764 487.863 304.16 487.863 277.718V273.454C487.863 269.615 487.863 265.35 487.445 261.512V261.086C487.863 261.086 487.863 261.512 488.281 261.512L488.699 261.939C489.117 265.777 489.117 269.615 489.117 273.454Z" fill="#F69220"/>
<path d="M455.673 195.408C455.673 195.408 355.341 176.216 308.102 265.351C308.102 265.351 316.463 203.511 388.367 175.79L374.153 148.495C374.153 148.495 402.999 122.053 453.583 128.877L455.673 195.408Z" fill="#EA2227"/>
<path d="M331.095 242.747C331.095 242.747 371.227 189.437 462.78 203.084L461.526 171.951C461.526 171.951 499.986 170.672 530.922 197.967L492.879 256.821C492.879 256.821 466.542 225.688 412.196 224.835C390.039 224.408 362.866 227.394 331.095 242.747" fill="#F69220"/>
<path d="M291.38 291.366C291.38 291.366 245.395 189.437 351.997 123.759L377.498 171.525C377.498 171.525 360.358 177.496 341.964 193.702C321.898 211.188 300.159 241.041 291.38 291.366Z" fill="#F69220"/>
<path d="M351.997 263.645C351.997 263.645 343.218 265.777 343.636 261.086C343.636 259.38 344.472 258.953 345.308 259.38C345.308 258.527 343.636 256.394 347.398 255.115C348.653 253.409 349.907 251.703 350.325 250.85C350.743 249.571 351.579 248.291 354.923 248.718C358.268 249.571 362.03 252.983 362.448 253.836C364.538 253.836 366.629 254.262 365.793 254.689C364.956 255.115 364.538 255.968 364.956 255.968C364.956 255.968 366.211 256.821 362.866 256.821C362.866 257.674 363.702 257.674 364.12 258.1C364.538 258.527 364.12 258.953 364.12 258.953C364.12 258.953 364.538 260.659 362.866 260.233C361.194 259.38 361.194 258.953 360.358 258.953C359.94 258.953 358.686 259.38 358.686 259.806C358.686 260.233 360.776 261.512 358.268 261.939C357.85 262.365 359.104 262.792 358.268 263.218C357.432 263.645 353.669 266.63 351.997 267.056C350.325 267.056 349.907 266.63 349.907 265.777C349.907 264.924 350.743 264.498 351.997 264.498C352.415 264.071 352.415 263.645 351.997 263.645" fill="#EC1C24"/>
<path d="M351.161 273.027C350.325 273.027 347.817 271.321 349.071 270.468C350.325 269.615 356.178 265.777 357.432 265.351C358.686 264.924 360.358 266.63 358.686 267.909C357.432 269.189 351.161 273.027 351.161 273.027Z" fill="#EC1C24"/>
<path d="M360.358 268.762C360.358 267.909 361.194 264.071 361.194 263.218C361.194 262.365 364.121 262.365 363.284 265.351C362.866 268.762 360.358 269.615 360.358 268.762Z" fill="#EC1C24"/>
<path d="M364.121 261.939C364.121 261.939 380.007 261.086 381.261 261.939C382.515 262.792 387.949 271.321 386.695 278.998C385.441 286.675 382.933 288.807 372.9 289.66C372.9 287.101 372.482 280.704 371.227 278.998C370.391 277.292 366.629 273.454 364.957 273.454C364.957 275.16 364.539 280.704 364.539 280.704C364.539 280.704 359.522 281.13 358.686 279.851V271.748C358.686 271.748 363.285 267.483 363.703 266.63C364.539 267.056 364.539 269.615 370.391 269.189C370.809 268.336 364.121 269.189 364.121 261.939" fill="#EC1C24"/>
<path d="M358.268 269.189C358.268 269.189 353.251 273.454 351.997 274.307C351.579 275.586 350.743 280.277 357.432 280.277C357.85 277.292 358.268 269.189 358.268 269.189Z" fill="#EC1C24"/>
<path d="M346.145 275.586C344.473 275.586 343.218 275.16 343.636 273.88C343.636 272.601 346.145 271.321 347.399 271.748C348.653 272.174 351.161 272.601 351.161 278.145C351.997 279.424 355.342 281.557 359.104 281.983C362.867 282.41 365.375 281.557 365.375 282.836V290.513C365.375 290.513 360.776 290.513 349.071 281.983C348.235 280.704 347.399 279.851 347.399 277.718C347.399 276.865 346.563 275.586 346.145 275.586Z" fill="#EC1C24"/>
<path d="M342.382 276.439C340.292 276.439 334.857 281.13 339.038 283.263C340.292 282.41 341.128 281.13 341.128 281.13C341.128 281.13 340.292 283.689 342.382 284.542C344.472 285.395 343.636 283.263 344.89 283.263C345.727 284.542 345.727 284.969 346.981 284.969C348.235 284.969 348.235 281.557 346.981 279.851C345.727 277.718 344.472 276.865 342.382 276.439Z" fill="#EC1C24"/>
<path d="M366.211 277.292V292.219C366.211 292.219 371.227 290.513 371.646 289.233C371.646 286.675 370.809 277.292 366.211 277.292Z" fill="#EC1C24"/>
<path d="M354.506 287.101C354.506 287.101 360.358 290.939 363.703 292.645C363.285 293.498 360.776 296.484 359.94 296.484C359.104 296.057 354.924 290.086 354.506 287.101" fill="#EC1C24"/>
<path d="M326.496 292.645H334.021V295.631H326.914L326.496 292.645Z" fill="#EC1C24"/>
<path d="M412.196 291.366H379.17L384.605 295.631H412.196V291.366Z" fill="#EC1C24"/>
<path d="M372.9 290.939C373.318 290.513 377.08 293.498 376.244 293.925C374.99 294.351 364.957 299.042 364.121 298.616C363.284 298.189 363.284 295.631 364.539 295.204C365.375 294.778 371.227 293.072 372.9 290.939" fill="#EC1C24"/>
<path d="M361.612 298.19C360.358 297.337 353.669 304.16 356.596 304.587C359.522 305.013 366.629 306.293 368.301 307.146C369.973 306.293 371.645 305.013 371.227 304.16C372.482 304.16 374.154 305.866 375.826 305.44C377.498 304.587 385.441 298.616 385.859 297.763C384.187 296.484 380.843 294.351 379.17 294.351C377.916 294.351 367.047 300.748 361.612 298.19" fill="#EC1C24"/>
<path d="M358.268 306.293C359.104 306.293 367.465 309.704 369.555 309.278C371.645 308.851 372.064 306.719 373.318 306.719C374.572 306.719 374.99 307.999 377.08 306.719C379.17 305.44 382.515 302.454 383.351 301.601C383.351 302.881 383.351 306.719 375.826 310.131C368.301 313.543 350.325 318.661 349.907 321.219C350.743 321.646 352.833 320.793 354.506 319.94C355.342 320.793 357.014 322.925 356.596 327.19C356.178 331.028 353.251 337.852 353.251 339.558V350.647C353.251 351.5 354.924 356.191 352.415 355.764C350.325 355.338 348.653 355.338 347.817 355.338C346.981 355.338 345.308 357.044 343.636 356.617C341.964 356.191 339.456 355.764 339.456 354.911C339.456 354.058 341.128 354.058 342.8 353.632C344.472 353.205 345.308 351.499 348.235 350.22C348.235 348.088 347.399 333.587 347.399 330.602C347.399 327.617 346.563 321.219 347.817 318.661C348.235 316.102 354.924 306.293 358.268 306.293" fill="#EC1C24"/>
<path d="M369.137 315.249C369.137 316.102 374.154 329.322 376.662 329.749C378.752 330.175 400.073 325.484 404.253 326.764C405.507 328.47 408.016 331.455 408.016 333.587C408.016 333.587 408.434 337.852 408.016 338.279C408.852 338.279 410.524 337.852 410.942 336.573C411.36 335.293 410.942 329.749 411.36 328.47C411.36 327.617 413.868 322.072 410.524 322.499C407.18 322.499 397.146 322.499 393.802 321.646C390.458 320.793 383.351 319.513 381.679 320.366C380.006 321.219 377.916 324.205 377.916 325.058C377.08 325.058 377.08 324.631 377.498 322.072C378.334 319.94 380.843 313.116 380.425 309.704C377.916 309.704 369.137 315.249 369.137 315.249Z" fill="#EC1C24"/>
<path d="M357.014 294.351C357.432 294.778 357.432 296.057 358.268 296.484L341.128 295.204C341.128 295.204 339.038 293.925 339.874 293.498L357.014 294.351Z" fill="#EC1C24"/>
<path d="M338.202 292.645H355.342C355.342 292.645 354.087 290.513 353.669 289.233C350.743 289.233 337.784 289.66 337.784 289.66C337.784 289.66 336.111 289.66 336.111 293.072C335.693 293.925 337.366 295.204 338.202 292.645" fill="#EC1C24"/>
<path d="M321.898 295.631H325.242C325.242 295.631 326.496 295.204 325.242 293.925C323.988 292.645 321.898 291.792 323.57 289.233C321.898 288.807 319.389 288.38 319.807 293.925H318.135C318.135 293.925 317.717 290.939 313.537 290.939C309.774 290.939 299.741 295.204 299.741 295.204C299.741 295.204 310.61 298.189 313.537 298.189C316.463 298.189 318.135 295.631 318.135 295.631H319.389C319.389 295.631 319.807 297.763 320.644 298.616V302.028C320.644 302.028 318.971 302.454 319.389 304.587C319.807 306.293 321.062 306.293 321.062 306.293C321.48 306.293 321.898 305.866 323.152 305.866C323.988 305.013 323.57 302.881 321.898 302.028V299.469C321.898 299.469 323.152 298.616 323.152 297.763C323.152 296.91 321.898 296.91 321.898 295.631Z" fill="#EC1C24"/>
<path d="M342.382 312.69C343.636 311.837 344.054 310.131 344.054 310.131V299.895C344.054 297.337 339.874 295.631 339.456 295.631H339.038C338.62 296.057 337.366 296.91 336.529 296.91C335.275 296.91 334.857 296.91 333.603 295.631C330.259 295.631 328.587 299.895 328.168 299.895C328.168 300.748 327.75 307.999 328.168 309.278C328.587 310.557 329.423 311.41 329.841 311.837C329.005 314.396 325.66 328.043 330.259 329.749V331.881H341.964V329.323C346.145 327.617 343.218 316.102 342.382 312.69V312.69ZM329.423 299.895C329.841 299.469 331.095 296.057 333.603 296.057C334.857 297.337 335.693 297.337 336.947 297.337C338.202 297.337 339.038 296.484 339.874 296.057C341.128 296.484 343.636 297.763 343.636 299.469V309.704C343.636 310.131 343.218 310.984 342.382 311.41H340.292V307.146H332.349V311.41H330.677C330.259 310.984 329.423 310.131 329.423 309.278C329.005 308.425 329.005 303.307 329.423 299.895V299.895ZM337.366 328.043H335.275C334.857 328.043 334.439 327.617 334.439 327.19C334.439 326.764 334.857 326.337 335.275 326.337H337.366C337.784 326.337 338.202 326.764 338.202 327.19C338.202 327.617 337.784 328.043 337.366 328.043ZM341.546 328.896L336.111 322.499L331.095 328.896C327.75 327.617 329.841 316.955 331.095 312.263H341.964C342.8 316.955 344.89 327.19 341.546 328.896" fill="#EC1C24"/>
<path d="M339.874 316.955C341.128 315.249 339.456 313.969 339.456 313.969H332.767C330.677 313.969 331.513 316.955 331.513 316.955L335.693 320.793C335.693 320.793 338.62 319.087 339.874 316.955Z" fill="#EC1C24"/>
<path d="M337.365 321.219L341.546 326.337C341.546 326.337 341.128 320.366 341.128 318.661C339.874 318.661 337.365 321.219 337.365 321.219" fill="#EC1C24"/>
<path d="M331.095 318.661C331.095 320.793 330.677 326.337 330.677 326.337L334.857 321.219C334.857 321.219 332.349 318.661 331.095 318.661" fill="#EC1C24"/>
<path d="M339.038 305.866H339.874V305.013C339.874 304.587 339.456 304.16 339.038 304.16H332.767C332.349 304.16 331.931 304.587 331.931 305.013V305.866H332.767H339.038Z" fill="#EC1C24"/>
<path d="M329.841 332.734H329.005V333.587C329.005 334.014 329.423 334.44 329.841 334.44H341.964C342.382 334.44 342.8 334.014 342.8 333.587V332.734H341.964H329.841Z" fill="#EC1C24"/>
</svg>
