<?xml version="1.0" encoding="UTF-8" standalone="no"?>
<!DOCTYPE svg PUBLIC "-//W3C//DTD SVG 1.1//EN" "http://www.w3.org/Graphics/SVG/1.1/DTD/svg11.dtd">
<svg width="100%" height="100%" viewBox="0 0 1383 2500" version="1.1" xmlns="http://www.w3.org/2000/svg" xmlns:xlink="http://www.w3.org/1999/xlink" xml:space="preserve" xmlns:serif="http://www.serif.com/" style="fill-rule:evenodd;clip-rule:evenodd;">
    <g transform="matrix(0.29074,0,0,0.29074,1059.98,1357.29)">
        <g id="layer1">
            <g id="g4182">
                <g id="g5747">
                    <path id="path4155" d="M-591.158,-4643.02L-597.914,-859.234L-753.32,-1298.42L-753.32,-1299.55L-954.896,2912.16C-756.698,3470.72 -650.842,3769.14 -649.716,3770.27C-648.59,3771.4 -535.977,3778.15 -399.716,3784.91C12.446,3805.18 523.707,3849.1 912.221,3897.52C1002.31,3908.78 1078.89,3914.41 1084.52,3909.91C1090.15,3905.41 1091.28,1979.73 1090.15,-370.495L1086.77,-4643.02L-591.158,-4643.02Z" style="fill:rgb(241,250,255);fill-rule:nonzero;stroke:rgb(255,0,0);stroke-width:1px;"/>
                    <path id="path4157" d="M-3626.07,-4649.78L-3626.07,-371.622C-3626.07,1980.86 -3623.82,3907.66 -3620.44,3911.04C-3617.06,3914.41 -3471.79,3899.78 -3296.11,3880.63C-3120.44,3861.49 -2878.32,3836.71 -2757.82,3826.58C-2573.14,3810.81 -2019.09,3775.9 -1956.02,3774.78C-1936.88,3774.78 -1935.75,3679.05 -1933.5,1962.84L-1930.12,150.901L-1796.11,529.279C-1775.84,587.838 -1769.09,605.856 -1748.82,663.288L-1547.24,-3547.3C-1590.03,-3667.79 -1567.51,-3604.73 -1615.93,-3742.12C-1780.35,-4207.21 -1919.99,-4600.23 -1925.62,-4618.24L-1936.88,-4649.78L-3626.07,-4649.78Z" style="fill:rgb(241,250,255);fill-rule:nonzero;stroke:rgb(255,0,0);stroke-width:1px;"/>
                    <path id="path5715" d="M-591.158,-4643.02L-597.914,-859.234L-753.32,-1298.42L-753.32,-1299.55L-954.896,2912.16C-756.698,3470.72 -650.842,3769.14 -649.716,3770.27C-648.59,3771.4 -535.977,3778.15 -399.716,3784.91C12.446,3805.18 523.707,3849.1 912.221,3897.52C1002.31,3908.78 1078.89,3914.41 1084.52,3909.91C1090.15,3905.41 1091.28,1979.73 1090.15,-370.495L1086.77,-4643.02L-591.158,-4643.02Z" style="fill:rgb(241,250,255);fill-rule:nonzero;stroke:rgb(255,0,0);stroke-width:1px;"/>
                    <path id="path5717" d="M-3626.07,-4649.78L-3626.07,-371.622C-3626.07,1980.86 -3623.82,3907.66 -3620.44,3911.04C-3617.06,3914.41 -3471.79,3899.78 -3296.11,3880.63C-3120.44,3861.49 -2878.32,3836.71 -2757.82,3826.58C-2573.14,3810.81 -2019.09,3775.9 -1956.02,3774.78C-1936.88,3774.78 -1935.75,3679.05 -1933.5,1962.84L-1930.12,150.901L-1796.11,529.279C-1775.84,587.838 -1769.09,605.856 -1748.82,663.288L-1547.24,-3547.3C-1590.03,-3667.79 -1567.51,-3604.73 -1615.93,-3742.12C-1780.35,-4207.21 -1919.99,-4600.23 -1925.62,-4618.24L-1936.88,-4649.78L-3626.07,-4649.78Z" style="fill:rgb(241,250,255);fill-rule:nonzero;stroke:rgb(255,0,0);stroke-width:1px;"/>
                    <path id="path5719" d="M-3626.07,-4649.78L-3626.07,-2247.75L-1934.63,2238.74C-1934.63,2136.26 -1934.63,2079.95 -1933.5,1962.84L-1930.12,150.901L-1796.11,529.279C-1052.87,2637.39 -653.095,3768.02 -650.842,3770.27C-649.716,3771.4 -537.104,3778.15 -400.842,3784.91C11.32,3805.18 522.581,3849.1 911.095,3897.52C1001.19,3908.78 1077.76,3914.41 1083.39,3909.91C1086.77,3906.53 1089.02,2962.84 1089.02,1630.63L-593.41,-3209.46L-594.536,-2751.13L-597.914,-859.234L-753.32,-1298.42C-905.347,-1727.48 -1006.7,-2014.64 -1618.18,-3742.12C-1782.6,-4207.21 -1922.24,-4600.23 -1927.87,-4618.24L-1939.13,-4649.78L-3626.07,-4649.78Z" style="fill:url(#_Radial1);fill-rule:nonzero;"/>
                    <path id="path5721" d="M-3626.07,-4648.65L-1931.25,154.279L-1931.25,152.027L-1797.24,530.405C-1052.87,2637.39 -653.095,3768.02 -650.842,3770.27C-649.716,3771.4 -537.104,3778.15 -400.842,3784.91C11.32,3805.18 522.581,3849.1 911.095,3897.52C1000.06,3908.78 1077.76,3914.41 1082.27,3909.91L-597.914,-860.36L-597.914,-859.234L-753.32,-1298.42C-905.347,-1727.48 -1006.7,-2014.64 -1618.18,-3742.12C-1782.6,-4207.21 -1922.24,-4600.23 -1927.87,-4618.24L-1939.13,-4649.78L-2782.6,-4649.78L-3626.07,-4648.65Z" style="fill:rgb(229,9,20);fill-rule:nonzero;"/>
                </g>
            </g>
        </g>
    </g>
    <defs>
        <radialGradient id="_Radial1" cx="0" cy="0" r="1" gradientUnits="userSpaceOnUse" gradientTransform="matrix(293.645,-101.688,-3724.54,-10756.7,-1347.52,-418.803)"><stop offset="0" style="stop-color:black;stop-opacity:1"/><stop offset="1" style="stop-color:black;stop-opacity:0"/></radialGradient>
    </defs>
</svg>
