<?xml version="1.0" encoding="UTF-8" standalone="no"?>
<!DOCTYPE svg PUBLIC "-//W3C//DTD SVG 1.1//EN" "http://www.w3.org/Graphics/SVG/1.1/DTD/svg11.dtd">
<svg width="100%" height="100%" viewBox="0 0 24 24" version="1.1" xmlns="http://www.w3.org/2000/svg" xmlns:xlink="http://www.w3.org/1999/xlink" xml:space="preserve" xmlns:serif="http://www.serif.com/" style="fill-rule:evenodd;clip-rule:evenodd;stroke-linejoin:round;stroke-miterlimit:2;">
    <path d="M12,0C5.373,0 0,5.373 0,12C0,18.627 5.373,24 12,24C18.627,24 24,18.627 24,12C24,5.373 18.627,0 12,0ZM9.365,17.443L7.038,17.443C6.824,17.443 6.655,17.263 6.668,17.051C6.707,16.38 7.095,14.18 8.44,5.526C8.486,5.223 8.743,5 9.045,5L13.329,5C15.621,5 17.314,6.347 16.847,8.757C16.366,11.265 14.835,12.485 12.167,12.485L10.849,12.486C10.309,12.487 10.109,12.692 10.041,13.174L9.365,17.443ZM18.235,11.643C17.741,14.221 16.05,15.111 13.89,15.111L13.557,15.111C13.293,15.111 13.068,15.306 13.027,15.571L12.558,18.54C12.516,18.805 12.292,19 12.028,19L10.432,19C10.205,19 10.031,18.797 10.066,18.573L10.874,13.393L10.91,13.36L12.167,13.36C15.221,13.36 17.131,11.833 17.693,8.945C18.167,9.421 18.333,10.04 18.333,10.694C18.333,11.007 18.295,11.327 18.235,11.643Z" style="fill:rgb(241,250,255);fill-rule:nonzero;"/>
</svg>
