<svg width="1228" height="2500" viewBox="0 0 1228 2500" fill="none" xmlns="http://www.w3.org/2000/svg">
<path d="M0.215252 409.874V2098.12C0.215252 2098.12 -26.987 2501.95 596.492 2488.23C596.492 2488.23 1157.33 2555.86 1227.96 2111.59V1038.6C1227.96 1038.6 1184.53 819.205 802.405 819.205C802.405 819.205 539.587 813.715 526.108 897.826L523.364 475.016C523.364 475.016 607.479 380.171 715.798 477.761L713.054 729.849H1227.96V409.874C1227.96 409.874 1226.71 -18.1769 621.704 6.03192C621.447 6.03192 46.3898 -42.6385 0.215252 409.874Z" fill="#F1FAFF"/>
<path d="M404.057 1404.5V2179.48H388.331V2221.16H429.514V2236.39H553.062V2219.42H569.534V1816.32C569.534 1816.32 614.212 1757.67 717.544 1770.65V1560C717.544 1560 807.397 1513.82 973.878 1513.82V1321.13C973.878 1321.13 911.977 1233.03 768.213 1331.37C768.213 1331.37 603.98 1421.22 569.285 1320.39H433.759V1333.87H403.311V1362.32H388.584V1393.77H403.559L404.057 1404.5V1404.5Z" fill="black" stroke="black" stroke-width="4.0783" stroke-miterlimit="10"/>
<path d="M582.511 1635.12V1753.68H703.563V1589.45L686.594 1559.74H658.641L659.391 1587.7C659.391 1587.7 688.094 1592.69 691.59 1610.66L680.86 1620.89C681.1 1620.64 650.15 1574.22 582.511 1635.12V1635.12Z" fill="#F1FAFF" stroke="black" stroke-width="4.0783" stroke-miterlimit="10"/>
</svg>
