<svg width="64" height="64" viewBox="0 0 64 64" fill="none" xmlns="http://www.w3.org/2000/svg">
<path d="M31.9497 0C15.305 0 1.66983 12.9512 0.375 29.4089L17.357 36.4943C18.7954 35.5005 20.535 34.9213 22.4043 34.9213C22.5729 34.9213 22.7394 34.926 22.9035 34.9351L30.4565 23.8873V23.7324C30.4565 17.0845 35.8162 11.6747 42.4047 11.6747C48.993 11.6747 54.3527 17.0845 54.3527 23.7324C54.3527 30.38 48.993 35.7921 42.4047 35.7921C42.3133 35.7921 42.2246 35.7898 42.1334 35.7876L31.3614 43.541C31.3683 43.6848 31.3727 43.8284 31.3727 43.9697C31.3727 48.9622 27.3491 53.0226 22.4043 53.0226C18.0637 53.0226 14.432 49.8948 13.6114 45.7548L1.46473 40.6867C5.2264 54.1077 17.4457 63.9471 31.9497 63.9471C49.4492 63.9471 63.6337 49.6304 63.6337 31.9736C63.6337 14.3145 49.4492 0 31.9497 0ZM20.2303 48.5145L16.3387 46.8915C17.0274 48.3413 18.2219 49.554 19.8063 50.2197C23.2304 51.6606 27.1789 50.0216 28.6062 46.5631C29.2968 44.8897 29.3015 43.0431 28.6175 41.3652C27.9335 39.6874 26.6409 38.3787 24.9836 37.6812C23.3354 36.9905 21.5709 37.0155 20.0205 37.6061L24.0422 39.2839C26.568 40.3462 27.7626 43.2734 26.7094 45.8223C25.6585 48.3709 22.7562 49.577 20.2303 48.5145ZM50.3664 23.7324C50.3664 19.303 46.794 15.6963 42.4055 15.6963C38.0147 15.6963 34.4423 19.303 34.4423 23.7324C34.4423 28.162 38.0147 31.7662 42.4055 31.7662C46.794 31.7662 50.3664 28.162 50.3664 23.7324ZM36.4371 23.7188C36.4371 20.3859 39.1158 17.6843 42.4168 17.6843C45.7204 17.6843 48.399 20.3859 48.399 23.7188C48.399 27.0517 45.7204 29.7533 42.4168 29.7533C39.1158 29.7533 36.4371 27.0517 36.4371 23.7188Z" fill="#3AB0F2"/>
</svg>
