<svg width="652" height="652" viewBox="0 0 652 652" fill="none" xmlns="http://www.w3.org/2000/svg">
<g clip-path="url(#clip0)">
<path d="M652 315.86V62.3586C652 58.4485 647.112 56.8193 644.506 59.7519L367.544 405.791C365.263 408.398 367.218 412.633 370.803 412.633H570.867C576.406 412.633 581.293 410.027 584.552 405.791L647.764 326.938C650.371 324.006 652 320.096 652 315.86ZM4.23587 327.264L212.12 587.282C215.378 591.518 220.592 593.799 226.131 593.799H426.195C429.779 593.799 431.734 589.889 429.453 587.282L7.49424 60.0777C4.88754 57.1452 0 58.7744 0 62.6844V316.186C0.325837 320.096 1.62917 324.006 4.23587 327.264Z" fill="#FF4655"/>
</g>
<defs>
<clipPath id="clip0">
<rect width="652" height="652" fill="white"/>
</clipPath>
</defs>
</svg>
