<svg width="64" height="64" viewBox="0 0 64 64" fill="none" xmlns="http://www.w3.org/2000/svg">
<path d="M32 0C14.328 0 0 14.328 0 32C0 49.672 14.328 64 32 64C49.672 64 64 49.672 64 32C64 14.328 49.672 0 32 0ZM28.3973 17.3147C28.184 15.1787 29.864 13.3333 32 13.3333C34.136 13.3333 35.816 15.1787 35.6027 17.3147L33.4667 38.6747C33.3893 39.4267 32.7573 40 32 40C31.2427 40 30.6107 39.4267 30.5333 38.672L28.3973 17.3147V17.3147ZM32 51.3333C30.16 51.3333 28.6667 49.84 28.6667 48C28.6667 46.16 30.16 44.6667 32 44.6667C33.84 44.6667 35.3333 46.16 35.3333 48C35.3333 49.84 33.84 51.3333 32 51.3333Z" fill="#F1FAFF"/>
</svg>
